<svg xmlns="http://www.w3.org/2000/svg" viewBox="0 0 328.18 322.83"><defs><style>.cls-1{fill:#4597d3;}.cls-1,.cls-2{opacity:0.85;}.cls-2{fill:#054886;}.cls-3{fill:#f7b05c;}</style></defs><g id="Capa_2" data-name="Capa 2"><g id="Capa_1-2" data-name="Capa 1"><path class="cls-1" d="M57.06,118.53c-26.23,26.32-42.7,63.13-21.84,80.64,28.93,24.29,64.76-48.9,135.45-24.42,35,12.1,62.39,49.51,82.22,44.7,33.56-8.15,21.81-49.47-1.13-91.12C216.12,63.62,142.84,32.42,57.06,118.53Z"/><path class="cls-2" d="M230.39,111.83C208.24,82,174.28,60.25,153.87,78.29c-28.31,25,38.77,71.29,4.1,137.58-17.14,32.78-58.2,54.37-56.38,74.69,3.09,34.4,45.7,28.9,90.28,12.38C261.15,277.27,302.85,209.41,230.39,111.83Z"/><path class="cls-3" d="M78.64,108.33a22.46,22.46,0,0,1,8.89,2.11c6.65,2.91,11,18.28,15.17,33.14,4.52,16,9.63,34.14,19.73,49.32,25.18,37.85,61.37,42.21,87.79,45.39,9.9,1.19,18.46,2.23,24.58,4.67,5.35,2.14,8,5,9.08,9.86,1.19,5.3.11,10.27-3.3,15.19-8.53,12.32-30.6,22.55-56.2,26.08a245.71,245.71,0,0,1-33.12,2.4c-20.19,0-38-3-53-9.05a86.28,86.28,0,0,1-33.77-23.56c-18.1-21-25.23-51.66-20.08-86.41,3.22-21.74,7.84-38.85,13.74-50.85S71,108.33,78.64,108.33m0-8c-23.67,0-36.17,35.37-42.19,76C26.73,242,57.57,304.49,151.26,304.49A250.19,250.19,0,0,0,185.47,302c36.8-5.07,72.2-24.38,66.21-50.95-8.31-36.85-81.15-.3-122.58-62.59-20.49-30.8-19.67-77.18-38.36-85.36a30.23,30.23,0,0,0-12.1-2.78Z"/><circle class="cls-2" cx="295.94" cy="245.19" r="32.23"/><path class="cls-3" d="M32.24,266.36a24.22,24.22,0,1,1-17.61,7.57,24.12,24.12,0,0,1,17.61-7.57m0-8a32.24,32.24,0,1,0,22.15,8.83,32.13,32.13,0,0,0-22.15-8.83Z"/><circle class="cls-1" cx="155.93" cy="32.23" r="32.23"/></g></g></svg>